<svg xmlns="http://www.w3.org/2000/svg" xml:space="preserve" viewBox="0 0 485 485">
  <path d="M0 70v345h30V121.213l40 40V371h30v-43.5h48.75V371h30v-43.5h48.75V371h30v-43.5h48.75V371h30v-43.5H385V371h30V161.213l40-40V415h30V70H0zm100 100h48.75v48.75H100V170zm285 0v48.75h-48.75V170H385zm-78.75 48.75H257.5V170h48.75v48.75zm-78.75 0h-48.75V170h48.75v48.75zM100 297.5v-48.75h48.75v48.75H100zm78.75 0v-48.75h48.75v48.75h-48.75zm78.75 0v-48.75h48.75v48.75H257.5zm78.75 0v-48.75H385v48.75h-48.75zM393.787 140H91.213l-40-40h382.574l-40 40z" />
</svg>